<svg width="20" height="40" viewBox="0 0 20 40" fill="none" xmlns="http://www.w3.org/2000/svg">
<g clip-path="url(#clip0_438_1130)">
<path d="M15.517 10.7099C15.3059 10.7099 15.0978 10.7195 14.8921 10.7382L16.2065 5.80956C17.7723 0.00143076 12.3183 0.00143073 12.3183 0.00143073C6.96497 -0.0993021 5.55109 5.15268 5.55109 5.15268L3.58167 12.6775H8.53085L10.8031 4.19361H11.7627L8.73835 15.5716C8.69311 15.682 8.64968 15.7936 8.60866 15.9058C8.65149 15.2181 8.54593 13.3844 6.20736 13.3844C3.3796 13.3844 2.62199 16.2122 2.62199 16.2122L0.248437 24.9995C0.248437 24.9995 -0.963374 29.0396 1.96572 29.0396C4.69275 29.0396 6.15729 24.8481 6.15729 24.8481L6.15247 24.9651L3.69989 34.142C2.18468 39.9496 7.43666 40.0002 7.63873 40.0002C13.1435 40.0509 14.5067 34.7482 14.5067 34.7482L16.5774 26.87H11.5782L9.20461 35.758H8.19487L10.1353 28.5342H10.1474L11.4799 23.5367H17.487L19.5071 15.9619C20.8703 11.0633 16.6794 10.7099 15.5176 10.7099H15.517ZM10.6824 20.7162C7.20805 22.7224 4.03587 23.7328 3.59735 22.9727C3.15883 22.2133 5.61985 19.9713 9.09423 17.9651C12.5686 15.9588 15.7408 14.9485 16.1793 15.7085C16.6178 16.4679 14.1568 18.71 10.6824 20.7162Z" fill="#EDFF8C"/>
</g>
<defs>
<clipPath id="clip0_438_1130">
<rect width="19.7762" height="40" fill="white"/>
</clipPath>
</defs>
</svg>
