<svg width="630" height="152" viewBox="0 0 630 152" fill="none" xmlns="http://www.w3.org/2000/svg">
<g clip-path="url(#clip0_455_2253)">
<path d="M74.319 0.650391L42.8784 151.11H23.248L37.5407 87.4904H35.4482L19.6304 151.11H0L40.2096 0.650391H74.319ZM36.9733 78.2404H40.5908L53.9349 18.7004H51.8424L36.9733 78.2404Z" fill="#EDFF8C"/>
<path d="M100.812 0.650391L69.9394 130.47H88.0447L83.0884 151.1H46.6914L82.512 0.650391H100.804H100.812Z" fill="#EDFF8C"/>
<path d="M159.127 0.650391L154.171 21.2804H136.065L125.585 65.5604H137.59L132.634 86.1904H120.629L110.148 130.47H128.254L123.297 151.1H86.9004L122.721 0.650391H159.118H159.127Z" fill="#EDFF8C"/>
<path d="M151.688 76.52C147.494 65.34 148.833 51.59 150.926 42.78L155.119 25.58C159.118 8.17 169.607 2.58 175.699 0.86C178.562 0 180.655 0 180.655 0C183.129 0 185.23 0.43 187.136 0.86C201.243 4.94 196.668 23 196.668 23L190 50.51H171.132L178.758 18.91H175.14L170.76 37.18C167.905 48.79 166.761 56.52 172.09 71.14L173.996 76.08C177.809 85.54 178.571 98.43 176.089 108.96L172.09 126.15C167.896 143.56 157.611 149.15 151.316 150.87C148.461 151.73 146.554 151.73 146.554 151.73C143.886 151.73 141.793 151.3 140.073 150.87C125.78 146.79 130.542 128.73 130.542 128.73L137.023 101.22H155.891L148.461 132.82H152.078L156.272 114.55C159.127 102.94 158.746 92.84 153.985 82.31L151.697 76.51L151.688 76.52Z" fill="#EDFF8C"/>
<path d="M216.103 128.97C216.103 128.97 210.961 151.75 189.229 151.75C189.229 151.75 169.794 151.75 175.885 126.17L199.896 25.1502C206.191 -1.06977 226.389 0.000233167 226.389 0.000233167C246.587 0.000233167 241.258 22.5702 241.258 22.5702L216.103 128.96V128.97ZM196.287 133.05L223.347 18.4902H219.73L192.669 133.05H196.287Z" fill="#EDFF8C"/>
<path d="M291.371 0.650391L255.542 151.1H237.25L253.83 58.2504H252.119L233.065 151.1H214.773L250.585 0.650391H268.877L254.77 93.0704H256.481L273.08 0.650391H291.371Z" fill="#EDFF8C"/>
<path d="M353.489 0.650391L348.533 21.2804H330.427L319.947 65.5604H331.952L326.996 86.1904H314.991L304.511 130.47H322.616L317.66 151.1H281.263L317.092 0.650391H353.489Z" fill="#EDFF8C"/>
<path d="M346.059 76.52C341.865 65.34 343.204 51.59 345.297 42.78L349.491 25.58C353.489 8.17 363.97 2.58 370.07 0.86C372.934 0 375.026 0 375.026 0C377.5 0 379.601 0.43 381.507 0.86C395.614 4.94 391.039 23 391.039 23L384.371 50.51H365.503L373.129 18.91H369.511L365.131 37.18C362.276 48.79 361.132 56.52 366.461 71.14L368.367 76.08C372.18 85.54 372.942 98.43 370.46 108.96L366.461 126.15C362.267 143.56 351.982 149.15 345.687 150.87C342.832 151.73 340.926 151.73 340.926 151.73C338.257 151.73 336.164 151.3 334.444 150.87C320.151 146.79 324.913 128.73 324.913 128.73L331.394 101.22H350.262L342.832 132.82H346.449L350.643 114.55C353.498 102.94 353.117 92.84 348.356 82.31L346.068 76.51L346.059 76.52Z" fill="#EDFF8C"/>
<path d="M438.865 0.650391L433.908 21.2804H423.047L392.174 151.1H373.501L404.179 21.2804H393.318L398.274 0.650391H438.865Z" fill="#EDFF8C"/>
<path d="M479.261 0.650391L474.304 21.2804H456.199L445.719 65.5604H457.724L452.768 86.1904H440.762L430.282 130.47H448.388L443.431 151.1H407.034L442.864 0.650391H479.261Z" fill="#EDFF8C"/>
<path d="M525.766 0.650391L485.361 151.1H451.252L483.074 0.650391H502.509L471.45 133.05H473.737L506.322 0.650391H525.757H525.766Z" fill="#EDFF8C"/>
<path d="M567.119 0.650391L535.678 151.1H516.048L530.341 87.4804H528.248L512.43 151.1H492.8L533.001 0.650391H567.11H567.119ZM529.764 78.2404H533.382L546.717 18.7004H544.625L529.764 78.2404Z" fill="#EDFF8C"/>
<path d="M630 0.650391L594.171 151.1H575.879L601.034 58.2504H599.322L571.685 151.1H561.968L578.548 58.2504H576.837L557.783 151.1H539.491L575.312 0.650391H593.603L579.497 93.0704H581.589L611.709 0.650391H630Z" fill="#EDFF8C"/>
</g>
<defs>
<clipPath id="clip0_455_2253">
<rect width="630" height="151.75" fill="white"/>
</clipPath>
</defs>
</svg>
