<svg width="470" height="264" viewBox="0 0 470 264" fill="none" xmlns="http://www.w3.org/2000/svg">
<g clip-path="url(#clip0_546_2106)">
<path d="M169.452 66.0794C169.845 117.812 167.9 156.734 163.672 181.764C159.78 204.804 153.91 216.574 145.71 217.797C133.767 219.554 119.22 198.234 101.235 152.619C93.0374 131.829 86.0574 110.677 82.0124 97.8619C80.9073 151.274 78.4349 191.662 74.6423 218.037C69.9674 250.572 63.9549 256.669 59.5274 257.634C59.2149 257.702 58.9074 257.744 58.6099 257.769C52.2024 258.297 41.6124 250.744 23.6799 179.372C13.9824 140.777 6.77986 101.459 6.70986 101.067C6.50736 99.9644 7.22736 98.8994 8.33986 98.7069C9.44236 98.5044 10.4999 99.2369 10.6999 100.337C10.7724 100.729 17.9549 139.929 27.6199 178.399C33.2849 200.944 38.6774 218.817 43.6474 231.522C51.6549 251.989 56.5474 253.867 58.2774 253.724C60.4649 253.549 65.9999 249.649 70.6274 217.457C74.6874 189.197 77.2324 144.657 78.1874 85.0719C78.2049 84.0694 78.9474 83.2319 79.9449 83.0944C80.9374 82.9594 81.8824 83.5719 82.1624 84.5344C82.2599 84.8694 92.1299 118.467 105.015 151.149C127.237 207.507 139.677 214.579 145.117 213.779C149.34 213.162 155.297 206.982 159.672 181.084C163.86 156.287 165.787 117.602 165.397 66.1044C165.18 37.2319 163.482 15.8244 160.357 2.47688C160.102 1.38688 160.78 0.294379 161.87 0.0393792C162.967 -0.188121 164.052 0.461879 164.307 1.55188C167.502 15.1919 169.235 36.9019 169.452 66.0744V66.0794Z" fill="white"/>
<path d="M253.996 128.413C244.398 139.668 230.638 146.67 219.018 148.715C216.291 156.5 212.931 160.875 209.023 161.728C208.971 161.74 208.916 161.75 208.863 161.76C206.221 162.27 203.561 161.098 201.371 158.46C198.008 154.413 195.783 146.673 197.098 140.423C196.568 137.858 196.908 134.485 199.001 130.1C201.696 124.458 206.766 122.135 211.918 124.188C217.883 126.563 222.481 134.375 220.223 144.633C221.743 144.298 223.306 143.873 224.893 143.358C234.936 140.11 244.506 133.778 251.151 125.988C251.821 125.203 253.001 125.11 253.786 125.778C254.571 126.448 254.666 127.628 253.996 128.413ZM214.838 149.245C209.448 149.645 204.763 148.833 201.516 146.725C201.191 146.513 200.848 146.268 200.503 145.985C200.841 149.863 202.331 153.765 204.246 156.073C205.151 157.163 206.563 158.395 208.156 158.09C209.278 157.873 211.968 156.555 214.836 149.245H214.838ZM210.538 127.663C207.261 126.358 204.211 127.873 202.378 131.713C201.386 133.79 200.813 135.648 200.661 137.275C201.313 137.768 201.588 138.653 201.273 139.453C201.158 139.75 201.053 140.055 200.961 140.368C201.401 141.678 202.263 142.755 203.551 143.59C206.346 145.405 210.866 145.983 216.186 145.333C217.846 139.318 217.201 130.318 210.538 127.663Z" fill="white"/>
<path d="M344.2 108.191C343.887 109.188 336.445 132.546 322.555 135.576C322.49 135.591 322.425 135.603 322.36 135.618C315.867 136.938 309.222 133.658 302.607 125.871C299.245 121.911 297.765 122.013 297.525 122.081C295.91 122.468 294.687 127.581 293.88 130.963C292.597 136.326 291.485 140.948 287.955 141.441C284.642 141.896 281.11 138.158 275.76 128.538C274.83 126.868 273.89 125.888 273.24 125.918C270.822 126.033 267.127 134.476 264.92 139.521C261.897 146.428 259.81 151.198 256.857 151.841C256.575 151.903 256.282 151.926 255.982 151.911C253.475 151.778 252.27 148.876 251.585 146.703C248.937 138.341 249.947 127.751 249.99 127.303C250.092 126.276 251.007 125.526 252.035 125.628C253.062 125.728 253.812 126.643 253.712 127.671C253.702 127.773 252.737 137.956 255.15 145.576C255.625 147.073 256.02 147.751 256.24 148.043C257.6 146.928 260.017 141.403 261.497 138.023C265.01 129.996 268.33 122.413 273.065 122.186C276.417 122.026 278.382 125.561 279.027 126.721C285.245 137.901 287.36 137.748 287.447 137.736C287.455 137.736 287.465 137.733 287.472 137.731C288.472 137.513 289.712 132.321 290.245 130.093C291.505 124.818 292.807 119.363 296.657 118.443C296.687 118.436 296.717 118.428 296.747 118.423C300.107 117.691 303.325 120.936 305.46 123.451C311.125 130.121 316.56 132.983 321.615 131.953C321.665 131.943 321.715 131.933 321.765 131.923C333.55 129.353 340.562 107.301 340.632 107.078C340.94 106.093 341.987 105.543 342.975 105.851C343.962 106.158 344.51 107.206 344.202 108.193L344.2 108.191Z" fill="white"/>
<path d="M396.411 97.3921C385.008 111.102 376.073 118.6 369.338 120.07C367.248 120.525 365.371 120.402 363.696 119.702C360.593 118.407 358.468 115.28 357.351 110.39C353.908 120.15 349.631 126.015 345.203 126.98C344.363 127.162 343.518 127.17 342.671 126.992C338.283 126.075 336.083 120.185 337.323 112.667C338.686 104.397 341.678 99.3021 346.216 97.5246C350.068 96.0171 354.001 97.3296 356.506 98.5971C356.553 97.5996 356.613 96.9721 356.618 96.9046C356.718 95.8746 357.633 95.1246 358.661 95.2246C359.688 95.3246 360.441 96.2371 360.341 97.2646C360.338 97.3071 359.933 101.602 360.438 106.185C360.868 110.062 362.031 114.957 365.136 116.252C368.111 117.492 375.753 116.38 393.536 95.0021C394.196 94.2096 395.373 94.0996 396.168 94.7596C396.961 95.4196 397.068 96.5996 396.411 97.3921ZM355.861 102.512C354.343 101.592 351.328 100.112 348.476 100.732C348.171 100.8 347.866 100.89 347.566 101.01C344.393 102.26 342.128 106.5 341.013 113.272C340.073 118.975 341.541 122.935 343.436 123.33C346.093 123.885 351.528 118.752 355.863 102.512H355.861Z" fill="white"/>
<path d="M460.518 83.1273C459.99 84.1048 447.438 107.082 433.263 107.505C427.565 107.675 422.528 104.287 418.288 97.4373C417.353 95.9298 416.438 95.0898 415.77 95.1373C413.243 95.3198 409.535 103.695 407.325 108.705C404.353 115.447 402.298 120.105 399.38 120.74C399.095 120.802 398.8 120.825 398.498 120.81C395.98 120.672 394.763 117.73 394.065 115.53C391.418 107.167 392.428 96.5773 392.47 96.1298C392.573 95.1023 393.488 94.3523 394.515 94.4548C395.543 94.5548 396.293 95.4698 396.193 96.4973C396.183 96.5998 395.218 106.782 397.63 114.402C398.123 115.957 398.533 116.652 398.755 116.945C400.078 115.872 402.36 110.695 403.903 107.197C407.408 99.2498 410.718 91.7423 415.51 91.4098C417.698 91.2573 419.703 92.6248 421.465 95.4723C424.953 101.105 428.883 103.897 433.148 103.77C439.283 103.587 445.438 97.6248 449.525 92.6523C454.125 87.0548 457.195 81.4098 457.225 81.3548C457.715 80.4473 458.85 80.1073 459.758 80.5973C460.665 81.0873 461.005 82.2223 460.518 83.1298V83.1273Z" fill="white"/>
<path d="M303.004 263.48V192.793H316.664V263.48H303.004Z" fill="#FEFEFE"/>
<path d="M321.518 263.48V192.793H336.083L342.583 226.615V192.793H356.243V263.48H342.418L335.341 228.095V263.48H321.516H321.518Z" fill="#FEFEFE"/>
<path d="M379.285 263.48V192.793H400.845L406.77 235.913L412.695 192.793H434.42V263.48H421.5V212.543L413.353 263.48H400.68L392.04 212.543V263.48H379.285Z" fill="#FEFEFE"/>
<path d="M439.855 263.48V192.793H468.163V206.453H454.255V220.195H467.588V233.525H454.255V249.738H469.068V263.48H439.855Z" fill="#FEFEFE"/>
<path d="M9.32859 126.822V69.7123H0.933594V56.1348H31.8761V69.7123H23.4836V126.822H9.32859Z" fill="#FEFEFE"/>
<path d="M35 126.823V56.1328H49.0725V81.3953H55.7375V56.1328H69.81V126.823H55.7375V94.7278H49.0725V126.823H35Z" fill="#FEFEFE"/>
<path d="M75.2422 126.823V56.1328H103.55V69.7928H89.6422V83.5353H102.975V96.8653H89.6422V113.078H104.455V126.82H75.2422V126.823Z" fill="#FEFEFE"/>
</g>
<defs>
<clipPath id="clip0_546_2106">
<rect width="468.133" height="263.48" fill="white" transform="translate(0.933594)"/>
</clipPath>
</defs>
</svg>
