<svg width="840" height="407" viewBox="0 0 840 407" fill="none" xmlns="http://www.w3.org/2000/svg">
<path d="M35.5873 298.05C19.4211 285.974 11.4336 268.058 11.4336 244.292C11.4336 220.527 19.4211 202.611 35.5873 190.343C51.5567 178.266 73.5673 172.23 101.422 172.23C129.277 172.23 150.894 177.878 167.06 189.173C183.03 200.665 191.602 217.607 192.964 240.394C183.03 239.809 169.305 233.92 154.595 239.618C127.64 250.058 125.964 240.394 116.03 241.373C116.419 227.935 115.254 215.858 112.723 204.951C110.192 194.044 106.294 188.594 101.428 188.594C96.1686 188.594 92.0792 194.629 89.548 206.515C86.8198 218.395 85.4586 231.057 85.4586 244.298C85.4586 257.539 86.8198 270.201 89.548 282.081C92.0792 293.961 96.1686 299.997 101.428 299.997C106.299 299.997 110.192 294.546 112.723 283.639C115.254 272.732 116.424 260.655 116.03 247.217C146.169 266.59 162.2 237.537 192.964 248.387C191.602 271.174 183.03 288.122 167.06 299.417C150.894 310.712 129.08 316.36 101.422 316.36C73.7642 316.36 51.5623 310.324 35.5873 298.05Z" fill="#FFF59E"/>
<path d="M200.945 176.512C223.929 177.485 246.907 177.485 270.088 176.512C270.088 207.286 271.258 235.917 273.395 262.209C280.213 257.922 288.588 256.364 298.134 257.534C299.889 234.55 300.665 207.477 300.665 176.512C323.452 177.485 346.048 177.485 368.835 176.512C365.915 221.697 365.915 266.883 368.835 312.069C345.66 311.095 322.288 311.095 299.107 312.069C301.835 302.523 302.027 290.643 299.883 276.232C290.535 272.727 282.744 274.477 276.512 281.688C270.279 288.894 268.333 299.019 270.476 312.069C247.295 311.095 224.12 311.095 200.945 312.069C203.865 266.883 203.865 221.697 200.945 176.512Z" fill="#FFF59E"/>
<path d="M378.954 198.465C407.619 238.532 431.66 222.506 449.655 198.465C446.927 236.332 446.927 274.2 449.655 312.073C426.086 311.257 402.523 311.257 378.954 312.073C381.485 274.205 381.485 236.338 378.954 198.465Z" fill="#FFF59E"/>
<path d="M481.593 298.05C465.427 285.974 457.439 268.058 457.439 244.292C457.439 220.527 465.427 202.611 481.593 190.343C497.563 178.266 519.573 172.23 547.423 172.23C575.272 172.23 596.894 177.878 613.061 189.173C629.03 200.665 637.603 217.607 638.964 240.394C629.03 239.809 616.976 252.555 600.596 239.618C588.215 229.836 571.964 240.394 562.031 241.373C562.419 227.935 561.254 215.858 558.718 204.951C556.186 194.044 552.288 188.594 547.423 188.594C542.163 188.594 538.074 194.629 535.543 206.515C532.814 218.395 531.453 231.057 531.453 244.298C531.453 257.539 532.814 270.201 535.543 282.081C538.074 293.961 542.163 299.997 547.423 299.997C552.294 299.997 556.186 294.546 558.718 283.639C561.249 272.732 562.419 260.655 562.031 247.217C604.955 235.034 598.441 264.081 638.964 248.387C637.603 271.174 629.03 288.122 613.061 299.417C596.894 310.712 575.081 316.36 547.423 316.36C519.764 316.36 497.563 310.324 481.593 298.05Z" fill="#FFF59E"/>
<path d="M442.68 190.951C442.68 197.735 439.457 202.505 434.243 207.264C429.028 211.707 421.828 216.14 413.88 214.992C405.926 213.85 398.726 212.787 393.518 208.54C388.303 204.586 385.08 197.448 385.08 190.951C385.08 185.124 388.303 180.995 393.518 176.219C398.732 171.787 405.926 166.713 413.88 166.91C421.834 167.107 429.034 167.304 434.243 171.584C439.457 175.505 442.68 183.509 442.68 190.951Z" fill="#FFF59E"/>
<path d="M651.587 244.669C651.587 195.524 683.571 166.656 737.396 166.656C791.222 166.656 823.206 195.518 823.206 244.669C823.206 293.821 791.222 322.682 737.396 322.682C683.571 322.682 651.587 293.821 651.587 244.669ZM760.802 209.564C760.802 185.899 752.218 171.859 737.396 171.859C722.574 171.859 713.996 185.899 713.996 209.564C713.996 233.228 722.58 247.268 737.396 247.268C752.213 247.268 760.802 233.223 760.802 209.564Z" fill="#FFF59E"/>
<path d="M37.6913 128.66C32.5894 122.304 27.8588 113.074 23.5107 102.56C19.1625 92.2161 14.6232 76.5392 10.275 56.6998C5.92691 37.1023 2.71504 18.3205 0.633789 4.30859C25.4007 6.43484 50.1675 7.34609 74.9344 5.12422C75.5025 31.6911 77.7694 56.2723 82.1175 75.7911C86.4657 95.248 90.4369 102.454 94.4082 100.164C98.3794 97.8748 102.351 82.3948 106.699 56.4748C111.047 30.9992 113.314 14.743 113.882 4.62922C138.458 4.26359 163.224 4.69672 188.183 4.30859C186.101 18.658 182.889 27.478 178.541 34.3517C174.193 41.2086 169.845 47.2048 165.497 53.8142C161.149 60.238 156.233 70.4361 151.131 85.6573C146.029 100.541 140.235 125.167 137.4 140.282C109.23 138.448 79.3557 140.614 47.7825 140.625C44.9475 139.415 42.7988 135.354 37.6913 128.66Z" fill="#FFF59E"/>
<path d="M192.446 4.28492C218.063 4.72367 245.558 5.4493 272.957 9.11117C300.356 12.0643 327.66 17.948 352.899 12.3624C351.763 24.293 351.386 36.8762 351.763 48.3174C334.939 65.783 312.945 55.1068 301.037 51.3718C288.938 48.3455 279.105 44.2337 271.545 41.8993C263.985 39.4637 258.501 38.3837 255.098 38.8337C251.694 39.2837 250.181 41.2468 250.373 44.7962C250.564 46.4499 254.153 48.6999 260.959 51.968C267.765 55.118 277.221 60.5124 289.32 65.6818C301.419 70.3055 316.168 78.5405 333.561 75.1655C333.184 82.4893 333.184 89.3855 333.561 95.4493C310.684 101.963 291.21 87.653 275.139 80.8355C259.069 73.0224 250.941 72.5499 250.373 78.6924C250.181 80.4305 250.564 82.0562 251.318 83.6593C251.886 85.3749 253.208 87.0455 255.098 89.003C256.988 90.9605 259.254 93.1093 261.713 94.9543C264.171 96.7993 267.383 99.0324 271.545 101.339C275.516 103.729 279.864 106.086 284.404 108.314C288.752 110.44 294.236 112.949 300.851 114.692C307.466 116.566 314.087 117.392 320.702 116.746C327.317 116.031 335.068 114.102 344.333 107.206C343.956 118.45 341.835 133.142 342.966 140.837C292.487 141.946 235.764 141.006 184.526 143.048C188.88 121.887 199.056 85.9768 204.039 61.4968C209.029 35.3855 208.832 20.6987 192.435 4.2793L192.446 4.28492Z" fill="#FFF59E"/>
<path d="M355.577 12.8071C377.695 22.0659 399.525 3.80151 421.834 4.16151C418.054 32.9784 415.596 59.4328 414.274 77.8265C412.952 96.479 413.52 104.635 415.787 106.188C418.622 106.778 429.208 99.809 447.169 89.0709C458.661 82.6528 473.657 76.814 488.912 83.8453C495.668 86.8209 500.955 95.6015 504.555 103.96C508.155 112.522 510.062 120.661 510.062 127.023C510.062 132.62 509.843 136.377 510.039 140.399C484.609 139.842 458.295 139.364 431.981 140.365C405.668 141.097 379.354 143.307 353.923 141.923C350.661 129.672 350.239 116.864 351.167 107.341C352.095 97.4971 354.373 90.944 356.505 83.6765C358.637 76.4259 360.623 68.4665 360.966 56.2209C361.309 44.3353 360.01 28.169 355.571 12.8015L355.577 12.8071Z" fill="#FFF59E"/>
<path d="M511.418 1.07812C531.865 9.32438 556.035 2.02312 578.535 1.07812C578.535 30.9525 579.672 58.74 581.747 84.2663C588.362 80.1094 596.496 78.5962 605.76 79.7269C607.465 57.4181 608.219 31.1381 608.219 1.07812C630.336 2.02312 620.931 18.2513 674.391 1.07812C671.556 44.9419 647.228 95.8031 673.12 138.007C650.62 137.062 627.934 137.062 605.434 138.007C607.83 129.615 609.259 114.979 607.96 101.895C607.701 99.2625 605.721 97.1419 603.128 96.6187C595.956 95.1731 589.836 97.3219 584.779 103.172C578.727 110.169 576.921 125.34 578.997 138.007C556.497 137.062 535.617 138.666 513.117 139.611C537.344 118.601 514.253 44.9419 511.418 1.07812Z" fill="#FFF59E"/>
<path d="M749.636 71.7849C740.422 69.5293 733.559 68.4043 729.048 68.4043C722.439 68.4043 716.358 69.1637 710.79 70.6824C710.711 71.7737 710.66 72.8931 710.66 74.0462C710.66 85.2174 714.418 93.6437 722.017 99.3249C729.526 105.096 740.051 108.64 753.146 108.64C766.241 108.64 776.326 105.096 783.931 99.3249C791.441 93.6437 795.198 85.2174 795.198 74.0462C795.198 73.3937 795.181 72.7524 795.159 72.1168C788.724 74.153 780.804 75.1768 771.371 75.1768C766.094 75.1768 758.844 74.0462 749.636 71.7962V71.7849Z" fill="#FFF59E"/>
<path d="M706.999 108.044C709.266 106.609 712.607 103.926 712.607 106.075C712.607 107.701 662.128 137.412 706.999 108.044Z" fill="#FFF59E"/>
<path d="M688.486 123.259C687.513 123.259 686.647 122.702 686.276 121.796C685.477 119.828 686.776 118.922 691.091 115.907C694.241 113.702 699.168 110.406 705.738 106.108L705.766 106.091C706.132 105.861 706.531 105.591 706.942 105.315C709.372 103.684 711.465 102.272 713.388 103.301C713.85 103.549 714.924 104.314 714.924 106.074C714.924 107.492 714.924 108.144 702.487 115.749C699 117.881 690.708 122.876 688.987 123.214C688.818 123.248 688.65 123.264 688.486 123.264V123.259Z" fill="#FFF59E"/>
<path d="M698.106 129.938C697.819 129.606 697.853 129.072 698.196 128.791C704.327 123.689 710.205 118.958 717.09 112.366C717.681 111.837 718.44 112.405 718.44 113.013C718.44 113.907 699.433 131.007 698.106 129.938Z" fill="#FFF59E"/>
<path d="M698.241 132.299C697.65 132.299 697.121 132.108 696.654 131.737L696.362 131.45C695.816 130.826 695.546 129.982 695.614 129.149C695.681 128.317 696.086 127.535 696.722 127.012L699.152 124.993C704.512 120.549 709.581 116.353 715.498 110.694C716.482 109.816 717.742 109.608 718.862 110.109C719.998 110.615 720.757 111.785 720.757 113.011C720.757 114.029 720.757 114.761 711.701 122.726C708.433 125.6 702.555 130.612 699.939 131.861C699.332 132.153 698.764 132.299 698.246 132.299H698.241Z" fill="#FFF59E"/>
<path d="M718.288 136.165C717.81 137.115 716.347 136.378 716.848 135.416C718.952 131.203 729.898 109.429 729.898 114.143C729.898 114.401 718.412 135.928 718.288 136.165Z" fill="#FFF59E"/>
<path d="M717.596 138.92C716.522 138.92 715.51 138.374 714.919 137.463C714.311 136.529 714.266 135.365 714.79 134.352C726.743 110.418 728.188 110.756 730.185 111.228C730.523 111.307 732.205 111.824 732.205 114.136C732.205 114.665 728.567 121.762 721.292 135.427C720.746 136.451 720.398 137.109 720.341 137.216C719.83 138.217 718.873 138.852 717.771 138.909C717.715 138.909 717.653 138.909 717.596 138.909V138.92ZM718.924 136.417C718.924 136.417 718.913 136.439 718.907 136.445C718.913 136.434 718.918 136.428 718.924 136.417Z" fill="#FFF59E"/>
<path d="M740.4 120.656C737.408 124.594 732.716 141.126 731.434 145.912C731.203 146.947 729.589 146.593 729.836 145.564C730.601 142.785 736.974 119.464 739.843 119.222C740.333 119.177 740.687 119.632 740.687 120.071C740.687 120.291 740.597 120.51 740.4 120.656Z" fill="#FFF59E"/>
<path d="M730.658 148.848C729.853 148.848 729.066 148.55 728.464 147.982C727.654 147.222 727.333 146.12 727.598 145.017L727.637 144.871C735.208 117.286 737.886 117.061 739.658 116.909C740.513 116.831 741.334 117.117 741.969 117.702C742.628 118.304 743.01 119.171 743.01 120.065C743.01 120.881 742.695 121.64 742.138 122.202C739.821 125.493 735.827 138.459 733.678 146.502C733.459 147.509 732.677 148.37 731.614 148.696C731.304 148.792 730.984 148.837 730.663 148.837L730.658 148.848ZM729.212 145.293C729.201 145.332 729.189 145.372 729.178 145.411C729.189 145.377 729.201 145.338 729.212 145.293Z" fill="#FFF59E"/>
<path d="M750.266 122.809C749.563 129.216 748.691 135.634 747.634 141.951C745.867 153.55 746.272 153.977 745.142 153.881C743.747 153.758 744.422 151.654 746.014 141.782C747.133 135.195 747.909 128.693 748.747 122.128C749.017 121.071 750.44 121.487 750.44 122.303C750.44 122.46 750.39 122.629 750.266 122.803V122.809Z" fill="#FFF59E"/>
<path d="M745.4 156.211C745.259 156.211 745.108 156.205 744.95 156.194C743.808 156.092 743.139 155.513 742.779 155.046C741.688 153.629 741.952 152.042 742.948 146.131C743.173 144.803 743.431 143.245 743.724 141.428C744.68 135.792 745.4 130.111 746.092 124.615L746.497 121.566C746.896 120.014 748.325 119.029 749.917 119.226C751.531 119.429 752.741 120.762 752.741 122.32C752.741 122.719 752.662 123.113 752.51 123.49C751.796 129.947 750.918 136.292 749.906 142.345C749.405 145.636 749.079 148.037 748.843 149.77C748.252 154.112 747.965 156.222 745.394 156.222L745.4 156.211Z" fill="#FFF59E"/>
<path d="M760.115 152.323C758.332 134.132 759.26 129.131 758.405 121.256C758.197 120.142 760.047 119.557 760.115 121.88C760.829 129.958 760.019 134.182 761.746 152.323C761.746 153.302 760.222 153.431 760.115 152.328V152.323Z" fill="#FFF59E"/>
<path d="M760.93 155.417C759.305 155.417 757.983 154.219 757.814 152.559C756.757 141.759 756.644 135.622 756.56 130.689C756.498 127.337 756.453 124.682 756.115 121.571C755.941 120.429 756.385 119.304 757.291 118.607C758.202 117.904 759.412 117.769 760.447 118.258C761.015 118.528 762.337 119.405 762.432 121.74C762.714 124.94 762.764 127.55 762.815 130.577C762.899 135.274 763.006 141.118 764.058 152.104L764.069 152.323C764.069 153.999 762.798 155.332 761.105 155.417C761.049 155.417 760.992 155.417 760.936 155.417H760.93Z" fill="#FFF59E"/>
<path d="M773.71 149.719C769.874 136.753 768.44 127.168 766.758 120.165C766.808 119.423 767.866 119.147 768.26 119.788C770.032 126.133 770.875 132.827 772.563 139.2C773.407 142.654 774.38 146.035 775.297 149.455C775.297 150.422 773.958 150.574 773.716 149.713L773.71 149.719Z" fill="#FFF59E"/>
<path d="M774.459 152.599C773.086 152.599 771.877 151.716 771.489 150.371C768.823 141.36 767.298 133.93 766.072 127.961C765.509 125.222 765.026 122.854 764.508 120.711L764.424 120.368L764.446 120.013C764.536 118.669 765.498 117.544 766.831 117.218C768.153 116.897 769.52 117.443 770.229 118.59L770.398 118.866L770.482 119.175C771.433 122.59 772.13 126.116 772.799 129.525C773.396 132.54 774.009 135.656 774.791 138.615C775.376 140.995 776.017 143.351 776.641 145.635C776.934 146.71 777.232 147.784 777.519 148.864L777.598 149.156V149.46C777.598 151.041 776.461 152.351 774.898 152.565C774.746 152.588 774.599 152.599 774.448 152.599H774.459Z" fill="#FFF59E"/>
<path d="M777.199 116.944C776.946 116.168 777.936 115.526 778.526 116.083C781.502 123.227 784.944 130.224 789.017 136.839C789.186 137.121 792.696 142.813 792.696 143.117C792.696 148.967 780.321 125.089 777.199 116.938V116.944Z" fill="#FFF59E"/>
<path d="M792.161 146.367C790.507 146.367 788.572 144.724 783.043 134.481C779.848 128.569 776.484 121.544 775.038 117.775L774.999 117.668C774.555 116.318 775.095 114.833 776.31 114.063C777.519 113.298 779.083 113.438 780.112 114.411L780.472 114.749L780.663 115.204C783.83 122.815 787.211 129.503 790.985 135.64L791.21 136.006C795.013 142.216 795.013 142.339 795.013 143.133C795.013 145.703 793.303 146.215 792.78 146.316C792.577 146.356 792.375 146.378 792.166 146.378L792.161 146.367Z" fill="#FFF59E"/>
<path d="M788.662 109.567C789.365 108.982 790.732 109.826 790.153 110.703C793.319 116.503 798.219 121.138 802.994 125.57C803.416 125.936 807.455 129.288 807.455 129.845C807.455 133.805 786.693 113.066 788.656 109.561L788.662 109.567Z" fill="#FFF59E"/>
<path d="M807.011 132.675C805.678 132.675 803.855 131.724 800.329 128.602C797.645 126.228 794.546 123.062 792.037 120.125C785.704 112.695 785.704 110.118 786.649 108.431L786.862 108.054L787.194 107.778C788.432 106.755 790.305 106.828 791.554 107.947C792.274 108.594 792.639 109.46 792.617 110.338C795.699 115.62 800.407 119.99 804.581 123.872L804.817 124.074C809.295 127.871 809.779 128.602 809.779 129.845C809.779 131.088 809.104 132.084 808.012 132.483C807.697 132.596 807.377 132.669 807.017 132.669L807.011 132.675Z" fill="#FFF59E"/>
<path d="M804.238 107.87C801.605 105.907 799.124 103.657 796.289 102.043C795.704 102.088 795.215 101.419 795.451 100.884C796.233 98.2967 804.271 106.38 815.516 114.429C815.741 114.587 815.865 114.845 815.865 115.104C815.865 117.292 813.114 114.845 804.238 107.87Z" fill="#FFF59E"/>
<path d="M815.325 118.237C813.632 118.237 811.449 116.515 805.543 111.847L802.826 109.703C802.01 109.096 801.212 108.46 800.413 107.825C798.759 106.514 797.19 105.265 795.514 104.27C794.782 104.09 794.113 103.645 793.663 103.004C793.044 102.132 792.904 101.052 793.275 100.09C793.59 99.1791 794.276 98.5041 795.171 98.2229C797.527 97.4916 800.188 99.601 806.623 104.714C809.621 107.099 813.024 109.805 816.86 112.55C817.682 113.129 818.177 114.085 818.177 115.103C818.177 116.948 817.063 117.685 816.585 117.916C816.163 118.118 815.758 118.231 815.325 118.231V118.237ZM814.166 116.313C814.166 116.313 814.177 116.318 814.183 116.324C814.183 116.324 814.172 116.318 814.166 116.313Z" fill="#FFF59E"/>
<path d="M798.192 89.8508C797.764 89.7383 797.472 89.3221 797.573 88.8721C798.073 87.3983 800.683 89.0802 801.792 89.1702C802.725 89.4233 828.522 97.9958 828.522 98.9633C828.522 101.798 813.025 93.6533 798.192 89.8508Z" fill="#FFF59E"/>
<path d="M827.638 101.878C825.647 101.878 822.469 100.719 816.135 98.3173C810.769 96.2811 804.086 93.7498 797.618 92.0905H797.595C795.947 91.6405 794.951 90.0092 795.323 88.3611L795.39 88.1248C795.671 87.298 796.245 86.6455 797.01 86.2798C798.473 85.5823 800.025 86.1505 801.274 86.6061C801.533 86.7017 801.921 86.8423 802.056 86.8705L802.404 86.9323C803.001 87.0955 809.897 89.3792 816.281 91.6123C830.845 96.7086 830.845 97.0517 830.845 98.9586C830.845 99.9092 830.4 100.764 829.635 101.293C829.084 101.675 828.465 101.867 827.649 101.867L827.638 101.878Z" fill="#FFF59E"/>
<path d="M832.604 82.4995C821.315 80.8345 803.427 78.7533 803.157 78.7139C802.027 78.5845 802.28 76.9589 803.298 77.0939C803.343 77.0995 820.87 79.1751 832.756 80.8739C833.167 80.9358 833.504 81.2676 833.504 81.6783C833.504 82.1451 833.077 82.567 832.61 82.4995H832.604Z" fill="#FFF59E"/>
<path d="M832.7 84.8174C832.559 84.8174 832.419 84.8062 832.278 84.7893H832.267C825.939 83.8555 816.477 82.6349 804.147 81.1612C803.321 81.0599 802.842 81.0037 802.797 80.998C801.746 80.8799 800.795 80.188 800.356 79.1587C799.906 78.1124 800.058 76.8918 800.75 75.9805C801.419 75.0974 802.488 74.6587 803.596 74.7993L803.821 74.8274C808.085 75.3393 822.789 77.1112 833.083 78.5849C834.641 78.8099 835.816 80.143 835.816 81.6787C835.816 82.5899 835.417 83.4562 834.719 84.058C834.151 84.553 833.437 84.8174 832.706 84.8174H832.7ZM803.416 76.4137C803.416 76.4137 803.439 76.4137 803.45 76.4137C803.439 76.4137 803.428 76.4137 803.416 76.4137Z" fill="#FFF59E"/>
<path d="M836.295 62.2555C824.6 62.9417 812.855 63.3242 801.285 65.2592C800.25 65.4505 799.94 63.8305 800.992 63.6505C806.567 62.7111 837.048 59.4261 837.048 61.4455C837.048 61.8392 836.801 62.233 836.289 62.2499L836.295 62.2555Z" fill="#FFF59E"/>
<path d="M801.111 67.5943C800.222 67.5943 799.373 67.2062 798.782 66.5031C798.04 65.6256 797.826 64.4106 798.22 63.3362C798.602 62.2956 799.491 61.5643 800.61 61.3731C803.518 60.8837 812.231 59.8768 820.084 59.2075C836.464 57.8181 837.566 58.7518 838.45 59.5C839.035 59.995 839.366 60.7037 839.366 61.4518C839.366 63.1506 838.101 64.4893 836.419 64.5681C834.506 64.6806 832.594 64.7818 830.681 64.8887C821.113 65.4118 811.225 65.9462 801.673 67.5437C801.488 67.5775 801.302 67.5943 801.116 67.5943H801.111ZM800.908 62.9818C800.908 62.9818 800.88 62.9818 800.869 62.9875C800.88 62.9875 800.897 62.9818 800.908 62.9818Z" fill="#FFF59E"/>
<path d="M797.982 50.3252C797.903 49.8921 798.207 49.4533 798.646 49.3802C804.232 48.3621 809.772 46.9558 815.234 45.4596C827.677 41.9777 828.678 40.8077 828.678 42.5458C828.678 43.8339 798.382 52.4177 797.988 50.3252H797.982Z" fill="#FFF59E"/>
<path d="M799.192 52.9575C797.876 52.9575 796.07 52.6425 795.71 50.7469V50.7188C795.406 49.02 796.548 47.3888 798.247 47.0963C804.063 46.0388 809.795 44.5425 814.627 43.2207C818.683 42.0844 821.461 41.2125 823.492 40.5769C827.351 39.3675 828.515 39.0019 829.843 39.975C830.602 40.5319 830.99 41.3982 830.99 42.54C830.99 44.2613 830.99 45.1275 817.603 48.9525C811.764 50.6175 804.153 52.53 800.289 52.8957C800.03 52.9182 799.642 52.9575 799.198 52.9575H799.192Z" fill="#FFF59E"/>
<path d="M821.068 33.2148C812.889 37.4336 804.165 40.8648 796.368 45.7136C796.121 45.9554 796.02 46.3323 795.603 46.3717C791.908 45.3873 799.608 41.9561 800.683 41.3654C820.916 31.0548 821.518 30.9086 821.518 32.5342C821.518 32.8042 821.388 33.0629 821.068 33.2148Z" fill="#FFF59E"/>
<path d="M795.429 48.7162L795.012 48.6037C792.762 48.0074 792.374 46.4887 792.312 45.8587C792.054 43.2937 795.041 41.5893 798.978 39.6318C799.242 39.5024 799.451 39.3956 799.569 39.3337C819.931 28.9556 820.578 28.6856 822.513 29.8668C823.391 30.4068 823.835 31.3012 823.835 32.5331C823.835 33.7649 823.171 34.7606 822.097 35.2837C819.121 36.8193 816.044 38.2649 813.069 39.6599C807.978 42.0506 802.713 44.5256 797.932 47.4618C797.6 47.8837 796.959 48.5474 795.856 48.6656L795.429 48.7106V48.7162Z" fill="#FFF59E"/>
<path d="M796.019 24.7034C799.192 20.0627 803.141 13.3015 803.141 16.8115C803.141 18.4371 769.588 64.8827 796.019 24.7034Z" fill="#FFF59E"/>
<path d="M785.113 43.7493L784.055 42.4331C782.773 40.7793 782.722 40.7118 794.09 23.4318L794.113 23.3981C794.681 22.5712 795.272 21.6768 795.857 20.7824C799.423 15.3712 801.048 12.8962 803.484 13.6331C804.075 13.8131 805.453 14.4768 805.453 16.8112C805.453 17.6268 805.453 18.3918 796.813 30.5474C788.167 42.7031 787.442 42.9506 786.677 43.2149L785.113 43.7493Z" fill="#FFF59E"/>
<path d="M770.977 39.8737C770.577 39.7274 770.313 39.238 770.487 38.833C776.264 24.9168 782.828 1.10617 782.828 8.46929C782.828 9.83054 772.692 40.1999 770.977 39.8793V39.8737Z" fill="#FFF59E"/>
<path d="M771.005 42.1862C770.825 42.1862 770.668 42.1693 770.544 42.1412L770.184 42.0455C769.38 41.753 768.721 41.1343 768.378 40.3412C768.041 39.5705 768.035 38.693 768.356 37.9337C770.561 32.6293 772.884 25.8399 774.937 19.8549C779.64 6.12428 780.247 4.35241 782.919 4.80803C785.141 5.17928 785.141 7.65428 785.141 8.46991C785.141 10.0112 775.753 39.0193 772.681 41.5674C772.074 42.068 771.461 42.1974 771.005 42.1974V42.1862Z" fill="#FFF59E"/>
<path d="M764.014 35.1899C764.171 35.9268 763.215 36.4668 762.658 35.9437C762.197 35.443 762.653 2.9868 763.749 2.9418C764.779 2.87992 764.604 4.05555 764.604 5.08492C764.604 16.3293 764.008 35.1899 764.008 35.1899H764.014Z" fill="#FFF59E"/>
<path d="M763.181 38.4683C762.411 38.4683 761.657 38.1814 761.072 37.6358L760.959 37.5177C760.256 36.7527 759.936 36.4039 760.284 20.2095C760.633 4.28516 761.274 2.73266 761.483 2.22078C761.876 1.27016 762.686 0.679531 763.654 0.634531C764.514 0.583906 765.336 0.876406 765.932 1.45578C766.973 2.45703 766.944 3.82953 766.922 4.74078V5.08391C766.922 15.6364 766.388 33.0627 766.326 35.0708C766.433 36.2689 765.825 37.4333 764.734 38.052C764.239 38.3277 763.704 38.4627 763.176 38.4627L763.181 38.4683Z" fill="#FFF59E"/>
<path d="M749.36 31.5145C746.21 13.897 745.591 8.79509 745.299 4.82384C745.237 3.77759 746.885 3.69321 746.93 4.75634C747.644 13.4807 750.963 31.2838 750.963 31.2838C750.963 32.4482 749.517 32.4651 749.354 31.5201L749.36 31.5145Z" fill="#FFF59E"/>
<path d="M750.153 34.5079C748.646 34.5079 747.352 33.4392 747.088 31.9204C744.078 15.0904 743.33 9.47105 742.998 4.99355C742.931 3.84042 743.442 2.80542 744.371 2.19792C745.332 1.56792 746.57 1.50605 747.594 2.0348C748.584 2.54105 749.202 3.5198 749.253 4.65605C749.939 13.071 753.219 30.6773 753.252 30.8573L753.292 31.2792C753.292 33.0004 752.094 34.3504 750.44 34.491C750.344 34.4967 750.254 34.5023 750.164 34.5023L750.153 34.5079ZM744.629 4.94292C744.629 4.94292 744.629 4.99917 744.635 5.0273C744.635 4.99917 744.635 4.97105 744.629 4.94292Z" fill="#FFF59E"/>
<path d="M729.571 8.24086C730.01 8.15649 730.443 8.45461 730.522 8.89336C732.783 18.4952 739.702 33.4802 739.702 33.4802C739.702 40.4215 726.82 8.51086 729.565 8.24086H729.571Z" fill="#FFF59E"/>
<path d="M739.173 36.7813C737.806 36.7813 736.209 36.1175 731.607 24.7775C729.464 19.49 727.096 12.7231 726.894 9.59001C726.708 6.71001 728.452 6.09126 729.149 5.96189C729.976 5.80439 730.809 5.98439 731.5 6.46251C732.187 6.93501 732.654 7.64939 732.806 8.46501C734.966 17.6225 741.744 32.36 741.811 32.5063L742.025 32.9675V33.4738C742.025 36.5338 739.882 36.7588 739.449 36.7756C739.359 36.7756 739.269 36.7813 739.179 36.7813H739.173ZM728.272 9.42126C728.277 9.46064 728.289 9.50001 728.3 9.53939C728.289 9.50001 728.283 9.46064 728.272 9.42126Z" fill="#FFF59E"/>
<path d="M715.02 14.2359C715.245 13.2516 716.78 13.5103 716.628 14.5284C721.59 26.8697 735.309 40.1672 735.309 40.1672C735.309 45.4378 715.486 20.4572 715.02 14.2359Z" fill="#FFF59E"/>
<path d="M734.752 43.2107C733.717 43.2107 730.837 42.6426 722.113 31.1282C719.396 27.5394 713.034 18.7251 712.714 14.4163L712.686 14.0732L712.759 13.7357C713.136 12.0707 714.694 11.0526 716.398 11.3676C717.804 11.6319 718.794 12.7288 718.929 14.0676C723.778 25.6944 736.777 38.3844 736.912 38.5138L737.616 39.1944V40.1732C737.616 42.1926 736.215 43.1601 734.916 43.2107C734.865 43.2107 734.809 43.2107 734.747 43.2107H734.752Z" fill="#FFF59E"/>
<path d="M698.842 25.7675C697.914 26.0487 697.379 24.665 698.257 24.2375C700.749 23.5175 709.816 32.6018 718.985 41.0168C719.39 41.3937 724.576 45.995 724.576 46.535C724.576 51.0237 711.959 34.4918 698.847 25.7731L698.842 25.7675Z" fill="#FFF59E"/>
<path d="M724.053 49.6291C722.068 49.6291 719.784 47.4072 714.631 42.3897C710.188 38.0697 704.152 32.1973 698.133 28.0798C697.076 27.911 696.142 27.1966 695.72 26.1166C695.118 24.5754 695.777 22.871 697.245 22.1566L697.61 22.016C700.676 21.1273 704.591 24.4573 715.903 35.0098C717.427 36.4273 718.985 37.8841 720.543 39.3129L720.886 39.6223C726.646 44.8198 726.883 45.3429 726.883 46.5298C726.883 48.4535 725.685 49.1679 725.167 49.3873C724.796 49.5448 724.425 49.6291 724.048 49.6291H724.053Z" fill="#FFF59E"/>
<path d="M710.858 54.0818C702.426 51.2468 694.118 47.9168 685.45 45.8749C685.011 45.7849 684.73 45.3349 684.825 44.9018C685.062 43.2761 691.007 45.4305 711.409 52.5518C711.741 52.6643 711.949 52.9905 711.949 53.3224C711.949 53.8736 711.387 54.2618 710.858 54.0818Z" fill="#FFF59E"/>
<path d="M711.127 56.4451C710.79 56.4451 710.447 56.3888 710.115 56.2763C707.775 55.4888 705.446 54.6676 703.112 53.8407C697.189 51.7482 691.069 49.5826 684.921 48.1313C684.172 47.9795 683.469 47.5013 683.008 46.7926C682.564 46.112 682.401 45.2795 682.552 44.4863C682.693 43.682 683.171 42.9845 683.874 42.557C686.046 41.2463 689.184 42.3376 709.626 49.4757L712.179 50.3645C713.428 50.8032 714.266 51.9901 714.266 53.3232C714.266 54.3245 713.777 55.2751 712.95 55.8601C712.41 56.2426 711.774 56.4395 711.127 56.4395V56.4451ZM685.911 43.6088C685.939 43.6145 685.972 43.6257 686.001 43.6313C685.972 43.6201 685.939 43.6145 685.911 43.6088Z" fill="#FFF59E"/>
<path d="M677.669 58.6108C677.703 57.8346 678.8 57.4746 679.221 58.1608C687.867 59.9721 696.743 60.4615 705.507 61.5527C706.469 61.8452 708.438 61.2883 708.516 62.6833C708.415 63.8421 677.765 61.0465 677.669 58.6108Z" fill="#FFF59E"/>
<path d="M706.509 65.2708C706.092 65.2708 705.665 65.2595 705.243 65.2483C700.996 65.1414 694.004 64.5114 688.239 63.7183C677.253 62.2051 675.447 61.0014 675.357 58.6951V58.5095C675.414 57.1145 676.381 55.9389 677.759 55.5845C678.665 55.3483 679.587 55.5226 680.313 56.0233C685.944 57.1595 691.805 57.7614 697.481 58.3408C700.203 58.622 703.021 58.9089 705.794 59.2576L706.182 59.342C706.272 59.3533 706.458 59.342 706.644 59.3533C709.951 59.4376 710.744 61.142 710.829 62.5483L710.84 62.717L710.823 62.8858C710.637 64.9839 708.691 65.2708 706.509 65.2708Z" fill="#FFF59E"/>
<path d="M671.926 78.7042C670.903 78.9067 670.588 77.2754 671.634 77.0954C673.237 76.7861 703.702 71.8473 703.702 73.5179C703.702 75.1886 688.953 75.5429 671.926 78.6986V78.7042Z" fill="#FFF59E"/>
<path d="M671.752 81.0392C670.869 81.0392 670.037 80.6623 669.452 79.9817C668.709 79.1154 668.478 77.8667 668.861 76.7979C669.238 75.7517 670.126 75.0148 671.246 74.8235C672.129 74.6492 679.847 73.3948 687.317 72.3654C703.331 70.1604 704.152 70.8354 705.108 71.6173C705.682 72.0954 706.014 72.7873 706.014 73.5242C706.014 76.5223 703.202 76.8541 692.739 78.0748C687.052 78.7385 679.976 79.5654 672.36 80.9773C672.157 81.0167 671.955 81.0335 671.752 81.0335V81.0392ZM672.123 79.3629C672.123 79.3629 672.09 79.3685 672.073 79.3742C672.09 79.3742 672.107 79.3685 672.123 79.3629Z" fill="#FFF59E"/>
<path d="M673.727 96.355C672.753 96.5406 672.371 95.0725 673.327 94.78C674.497 94.3469 699.663 84.9925 700.052 86.185C700.08 86.2694 700.091 86.3481 700.091 86.4325C700.091 87.4225 674.66 96.0175 673.727 96.355Z" fill="#FFF59E"/>
<path d="M673.558 98.6843C672.146 98.6843 670.914 97.7337 670.554 96.2937C670.155 94.6849 671.021 93.1099 672.562 92.5924L672.658 92.5586C698.673 82.9286 699.905 83.5136 700.985 84.0368L701.874 84.4643L702.245 85.4655C702.347 85.7805 702.403 86.1068 702.403 86.433C702.403 88.5255 702.403 88.9587 675.735 98.1105C675.054 98.3468 674.615 98.493 674.508 98.5324L674.154 98.628C673.952 98.6674 673.755 98.6843 673.558 98.6843Z" fill="#FFF59E"/>
<path d="M675.836 110.39C674.789 110.458 674.705 108.81 675.768 108.765C689.116 105.007 701.879 94.5054 701.885 97.9367C701.885 99.5623 680.954 109.091 675.841 110.39H675.836Z" fill="#FFF59E"/>
<path d="M675.774 112.707C674.734 112.707 673.788 112.207 673.22 111.341C672.596 110.396 672.529 109.13 673.046 108.117C673.502 107.229 674.334 106.638 675.318 106.492C681.737 104.652 688.155 101.131 692.852 98.5549C698.477 95.4668 700.811 94.1899 702.791 95.3655C703.68 95.8943 704.192 96.828 704.192 97.9362C704.192 99.4043 704.192 100.563 691.755 106.379C686.462 108.854 679.402 111.869 676.404 112.629L675.988 112.696C675.915 112.702 675.842 112.702 675.769 112.702L675.774 112.707Z" fill="#FFF59E"/>
<path d="M603.779 378.656C603.431 378.656 602.969 378.69 602.39 378.757C601.811 378.825 601.243 379.05 600.68 379.421C600.118 379.798 599.634 380.4 599.229 381.232C598.824 382.065 598.627 383.246 598.627 384.776C598.627 386.469 598.987 388.01 599.713 389.405C600.359 390.772 601.456 391.458 603.014 391.458C603.307 391.458 603.723 391.408 604.263 391.295C605.608 391.054 606.811 389.968 607.886 388.033C608.555 386.745 609.028 385.4 609.298 384.005C609.191 382.717 609.134 380.973 609.134 378.768C608.223 378.69 606.434 378.65 603.779 378.65V378.656Z" fill="#FFF59E"/>
<path d="M471.272 364.098C470.602 363.575 469.432 363.311 467.767 363.311C466.935 363.311 466.4 363.339 466.158 363.389L465.838 379.139C467.447 377.986 468.903 376.372 470.208 374.307C471.508 372.243 472.2 369.931 472.284 367.377C472.284 365.712 471.947 364.621 471.277 364.092L471.272 364.098Z" fill="#FFF59E"/>
<path d="M211.166 372.918C210.952 372.822 210.519 372.777 209.878 372.777C208.612 372.777 207.651 373.295 206.976 374.33C206.306 375.365 205.969 377.829 205.969 381.721C206.019 386.986 206.655 390.097 207.864 391.064C208.213 391.413 208.697 391.587 209.316 391.587L209.676 391.548C210.159 391.548 210.688 391.396 211.267 391.087C211.847 390.777 212.359 389.979 212.797 388.69C213.242 387.402 213.461 385.09 213.461 381.76C213.461 377.44 212.871 374.605 211.689 373.261C211.554 373.126 211.38 373.014 211.166 372.918Z" fill="#FFF59E"/>
<path d="M516.941 378.656C516.592 378.656 516.131 378.69 515.551 378.757C514.972 378.825 514.404 379.05 513.841 379.421C513.279 379.798 512.795 380.4 512.39 381.232C511.985 382.065 511.788 383.246 511.788 384.776C511.788 386.469 512.148 388.01 512.874 389.405C513.521 390.772 514.617 391.458 516.176 391.458C516.468 391.458 516.884 391.408 517.424 391.295C518.769 391.054 519.972 389.968 521.047 388.033C521.716 386.745 522.189 385.4 522.459 384.005C522.352 382.717 522.296 380.973 522.296 378.768C521.384 378.69 519.596 378.65 516.941 378.65V378.656Z" fill="#FFF59E"/>
<path d="M283.019 362.912C282.024 362.912 281.186 363.143 280.499 363.598C279.819 364.054 279.256 364.988 278.829 366.4C278.401 367.806 278.103 369.898 277.94 372.66C277.884 373.571 277.861 374.404 277.861 375.158C277.861 378.78 278.384 381.064 279.431 382.003C279.836 382.459 280.477 382.69 281.366 382.69C281.771 382.69 282.226 382.628 282.733 382.51C283.244 382.386 283.745 382.037 284.246 381.463C284.741 380.884 285.185 379.928 285.573 378.583C285.961 377.239 286.237 375.36 286.4 372.947C286.451 372.221 286.479 371.254 286.479 370.045C286.479 366.799 286.006 364.633 285.067 363.559C284.69 363.131 284.004 362.912 283.014 362.912H283.019Z" fill="#FFF59E"/>
<path d="M657.667 362.912C656.671 362.912 655.833 363.143 655.147 363.598C654.466 364.054 653.904 364.988 653.476 366.4C653.049 367.806 652.751 369.898 652.588 372.66C652.531 373.571 652.509 374.404 652.509 375.158C652.509 378.78 653.032 381.064 654.078 382.003C654.483 382.459 655.124 382.69 656.013 382.69C656.418 382.69 656.874 382.628 657.38 382.51C657.892 382.386 658.393 382.037 658.893 381.463C659.388 380.884 659.833 379.928 660.221 378.583C660.609 377.239 660.884 375.36 661.048 372.947C661.098 372.221 661.126 371.254 661.126 370.045C661.126 366.799 660.654 364.633 659.714 363.559C659.338 363.131 658.651 362.912 657.661 362.912H657.667Z" fill="#FFF59E"/>
<path d="M675.836 350.807H164.158C161.683 350.807 159.675 352.815 159.675 355.29V401.921C159.675 404.396 161.683 406.404 164.158 406.404H675.842C678.317 406.404 680.325 404.396 680.325 401.921V355.29C680.325 352.815 678.317 350.807 675.842 350.807H675.836ZM482.91 362.023C484.682 358.451 487.567 356.668 491.567 356.668C493.901 356.668 495.875 357.433 497.49 358.963C498.778 360.358 499.639 362.062 500.066 364.076C500.494 366.09 500.713 368.143 500.713 370.241L500.595 373.948C494.874 374.027 490.38 374.066 487.1 374.066C487.151 377.689 487.702 379.961 488.754 380.872C489.047 381.249 489.615 381.435 490.447 381.435C490.796 381.435 491.179 381.373 491.595 381.255C492.011 381.137 492.422 380.805 492.827 380.27C493.232 379.736 493.62 378.859 493.997 377.655H500.201C498.778 383.994 495.572 387.257 490.577 387.442H490.256C487.354 387.442 485.098 386.238 483.489 383.837C481.88 381.435 481.07 377.953 481.07 373.385C481.099 368.205 481.717 364.419 482.921 362.028L482.91 362.023ZM340.108 361.117C341.84 358.794 344.394 357.607 347.78 357.551C349.957 357.551 351.819 358.265 353.377 359.683C354.935 361.241 355.942 363.215 356.398 365.606C356.854 367.862 357.084 370.145 357.084 372.452V372.857C357.084 382.818 353.9 387.999 347.539 388.404H346.976C344.102 388.404 341.829 387.178 340.147 384.72C338.471 382.262 337.588 378.403 337.509 373.143C337.509 367.451 338.375 363.446 340.108 361.123V361.117ZM191.225 397.505L179.666 374.027C179.666 382.245 179.385 390.058 178.822 397.466L172.297 397.022C172.809 389.72 173.062 382.442 173.062 375.191C173.062 369.875 172.899 364.369 172.579 358.676L178.62 357.107L190.382 381.069L190.342 375.27C190.342 370.224 190.477 364.824 190.747 359.081V357.956L193.205 357.995C195.703 357.995 198.701 357.973 202.205 357.934C205.71 357.894 208.95 357.827 211.931 357.731C214.912 357.635 216.965 357.523 218.096 357.388L219.142 363.789C215.863 364.194 208.494 364.419 197.03 364.475C196.924 367.94 196.867 371.445 196.867 374.989C196.867 379.685 196.935 383.915 197.07 387.673C197.149 390.733 197.188 393.54 197.188 396.088L191.225 397.5V397.505ZM219.457 382.481C219.457 387.532 218.619 391.262 216.943 393.68C215.267 396.099 212.932 397.387 209.957 397.545L209.27 397.584C203.094 397.584 199.978 392.308 199.927 381.755C199.927 376.547 200.794 372.755 202.526 370.376C204.259 368.002 206.762 366.787 210.035 366.731C212.263 366.731 214.187 367.428 215.795 368.823C217.404 370.432 218.428 372.463 218.855 374.904C219.26 377.238 219.457 379.618 219.457 382.031V382.475V382.481ZM241.069 395.21C238.987 397.303 236.225 398.349 232.789 398.349C230.719 398.349 228.93 397.865 227.411 396.898C225.892 395.93 224.728 394.676 223.907 393.135C223.085 391.588 222.675 389.957 222.675 388.241H229.2C229.2 389.209 229.481 390.047 230.044 390.755C230.606 391.47 231.517 391.824 232.783 391.824C236.006 391.824 237.615 390.373 237.615 387.476V387.116C237.615 385.052 237.154 383.567 236.225 382.667C235.297 381.767 233.852 380.861 231.894 379.95C231.866 379.922 231.827 379.91 231.776 379.91C230.78 379.427 229.774 378.875 228.755 378.257C224.7 375.815 222.675 372.148 222.675 367.26C222.675 364.976 223.17 363.052 224.165 361.483C225.155 359.914 226.421 358.721 227.951 357.917C229.481 357.112 231.05 356.707 232.665 356.707C235.939 356.707 238.639 358.158 240.759 361.055C242.104 363.097 242.773 365.325 242.773 367.744H236.209C236.209 366.59 235.91 365.584 235.32 364.723C234.757 363.755 233.869 363.272 232.659 363.272C231.799 363.272 231.005 363.553 230.285 364.115C229.565 364.678 229.2 365.724 229.2 367.254C229.2 369.217 229.65 370.623 230.55 371.484C231.45 372.345 232.867 373.217 234.802 374.1L234.881 374.139C235.871 374.595 236.906 375.135 237.98 375.748C242.115 378.217 244.185 382.003 244.185 387.105C244.185 390.407 243.144 393.107 241.063 395.199L241.069 395.21ZM265.397 395.21C263.315 397.303 260.554 398.349 257.117 398.349C255.047 398.349 253.258 397.865 251.739 396.898C250.22 395.93 249.056 394.676 248.235 393.135C247.414 391.588 247.003 389.957 247.003 388.241H253.528C253.528 389.209 253.809 390.047 254.372 390.755C254.934 391.47 255.845 391.824 257.111 391.824C260.334 391.824 261.943 390.373 261.943 387.476V387.116C261.943 385.052 261.482 383.567 260.554 382.667C259.625 381.767 258.18 380.861 256.222 379.95C256.194 379.922 256.155 379.91 256.104 379.91C255.109 379.427 254.102 378.875 253.084 378.257C249.028 375.815 247.003 372.148 247.003 367.26C247.003 364.976 247.498 363.052 248.494 361.483C249.484 359.914 250.749 358.721 252.279 357.917C253.809 357.112 255.379 356.707 256.993 356.707C260.267 356.707 262.967 358.158 265.087 361.055C266.432 363.097 267.101 365.325 267.101 367.744H260.537C260.537 366.59 260.239 365.584 259.648 364.723C259.085 363.755 258.197 363.272 256.987 363.272C256.127 363.272 255.334 363.553 254.614 364.115C253.894 364.678 253.528 365.724 253.528 367.254C253.528 369.217 253.978 370.623 254.878 371.484C255.778 372.345 257.195 373.217 259.13 374.1L259.209 374.139C260.199 374.595 261.234 375.135 262.309 375.748C266.443 378.217 268.513 382.003 268.513 387.105C268.513 390.407 267.472 393.107 265.391 395.199L265.397 395.21ZM291.075 398.192C287.582 397.871 283.329 397.708 278.306 397.708C276.455 397.708 275.015 397.719 273.997 397.747H272.951L272.788 391.222L278.509 391.183C283.717 391.183 288.122 391.357 291.722 391.706L291.075 398.192ZM290.186 383.994C288.279 387.285 285.337 388.927 281.366 388.927C278.25 388.927 275.803 387.768 274.014 385.445C272.225 383.122 271.337 379.708 271.337 375.197C271.337 372.62 271.534 370.157 271.922 367.805C272.31 365.454 272.906 363.519 273.716 361.984C275.78 358.412 278.885 356.629 283.02 356.629C285.731 356.629 287.987 357.5 289.787 359.244C291.964 361.556 293.049 365.122 293.049 369.96C293.049 376.029 292.093 380.709 290.192 383.994H290.186ZM331.569 395.21C329.488 397.303 326.726 398.349 323.289 398.349C321.219 398.349 319.43 397.865 317.912 396.898C316.393 395.93 315.229 394.676 314.407 393.135C313.586 391.588 313.175 389.957 313.175 388.241H319.7C319.7 389.209 319.982 390.047 320.544 390.755C321.107 391.47 322.018 391.824 323.284 391.824C326.507 391.824 328.115 390.373 328.115 387.476V387.116C328.115 385.052 327.654 383.567 326.726 382.667C325.798 381.767 324.352 380.861 322.395 379.95C322.367 379.922 322.327 379.91 322.277 379.91C321.281 379.427 320.274 378.875 319.256 378.257C315.2 375.815 313.175 372.148 313.175 367.26C313.175 364.976 313.67 363.052 314.666 361.483C315.656 359.914 316.922 358.721 318.452 357.917C319.982 357.112 321.551 356.707 323.165 356.707C326.439 356.707 329.139 358.158 331.26 361.055C332.604 363.097 333.274 365.325 333.274 367.744H326.709C326.709 366.59 326.411 365.584 325.82 364.723C325.258 363.755 324.369 363.272 323.16 363.272C322.299 363.272 321.506 363.553 320.786 364.115C320.066 364.678 319.7 365.724 319.7 367.254C319.7 369.217 320.15 370.623 321.05 371.484C321.95 372.345 323.368 373.217 325.303 374.1L325.382 374.139C326.372 374.595 327.407 375.135 328.481 375.748C332.615 378.217 334.685 382.003 334.685 387.105C334.685 390.407 333.645 393.107 331.564 395.199L331.569 395.21ZM383.989 387.397C384.067 390.677 384.107 393.562 384.107 396.054L378.105 397.466L366.585 374.027C366.585 382.138 366.326 389.63 365.82 396.499L365.938 397.303C363.733 397.573 359.824 397.753 354.199 397.849C348.574 397.944 343.905 397.989 340.204 397.989H337.504V391.464C346.335 391.464 353.692 391.368 359.576 391.183C359.846 386.109 359.981 380.737 359.981 375.073C359.981 369.785 359.818 364.307 359.497 358.642L365.499 357.073L377.3 380.996L377.261 374.713C377.261 369.667 377.424 364.065 377.745 357.917L384.27 358.322C383.949 364.419 383.786 369.96 383.786 374.955C383.786 379.28 383.854 383.426 383.989 387.403V387.397ZM412.828 397.871H406.303L406.342 384.742L394.862 384.905C394.89 389.203 395.025 393.793 395.267 398.681L388.742 399.041C388.444 393.59 388.297 387.791 388.297 381.643C388.297 374.662 388.483 366.242 388.86 356.392L395.385 356.674C395.064 365.589 394.89 372.823 394.862 378.38L406.342 378.178L406.421 357.517L412.946 357.557L412.828 397.871ZM436.712 398.192C433.219 397.871 428.966 397.708 423.943 397.708C422.092 397.708 420.652 397.719 419.634 397.747H418.588L418.425 391.222L424.145 391.183C429.354 391.183 433.759 391.357 437.359 391.706L436.712 398.192ZM435.823 383.994C433.916 387.285 430.974 388.927 427.003 388.927C423.887 388.927 421.44 387.768 419.651 385.445C417.862 383.122 416.974 379.708 416.974 375.197C416.974 372.62 417.17 370.157 417.559 367.805C417.947 365.454 418.543 363.519 419.353 361.984C421.417 358.412 424.522 356.629 428.657 356.629C431.368 356.629 433.624 357.5 435.424 359.244C437.6 361.556 438.686 365.122 438.686 369.96C438.686 376.029 437.73 380.709 435.829 383.994H435.823ZM500.021 395.655C496.044 397.747 491.887 398.794 487.534 398.794C484.873 398.794 482.224 398.231 479.58 397.1C476.936 395.975 474.489 394.496 472.25 392.668C470.012 390.84 468.122 388.815 466.592 386.587L465.664 387.15L465.382 398.428L458.818 398.31L459.662 358.192H459.701V357.467C460.427 357.467 461.366 357.371 462.519 357.185C464.128 356.915 465.849 356.78 467.677 356.78C471.035 356.78 473.679 357.613 475.614 359.278C477.735 361.213 478.798 363.907 478.798 367.372C478.798 372.958 476.464 378.004 471.789 382.515C472.807 384.152 474.534 386.019 476.964 388.112C479.394 390.204 482.1 391.577 485.081 392.218C485.992 392.381 486.864 392.46 487.697 392.46C490.729 392.46 493.845 391.588 497.04 389.844C498.058 389.31 499.363 388.545 500.949 387.549L504.375 393.146C502.738 394.142 501.287 394.974 500.027 395.643L500.021 395.655ZM524.872 397.55C524.552 396.611 524.293 395.711 524.107 394.85C523.382 395.711 522.313 396.448 520.907 397.067C519.495 397.685 517.92 397.995 516.176 397.995C514.241 397.995 512.486 397.517 510.9 396.566C509.314 395.615 508.054 394.248 507.114 392.477C505.877 390.086 505.264 387.521 505.264 384.782C505.264 380.94 506.321 377.874 508.447 375.579C510.568 373.284 513.403 372.137 516.947 372.137C519.495 372.137 521.255 372.165 522.223 372.215C522.116 368.295 521.497 365.73 520.372 364.52C519.945 364.037 519.18 363.795 518.077 363.795C515.552 363.795 514.033 365.314 513.527 368.345C513.392 369.071 513.324 369.611 513.324 369.954L506.839 369.673C506.839 367.687 507.322 365.617 508.29 363.468C509.257 361.483 510.59 359.947 512.3 358.856C514.005 357.77 515.929 357.225 518.077 357.225C520.867 357.225 523.168 358.113 524.962 359.885C526.25 361.202 527.173 362.827 527.719 364.757C528.27 366.692 528.596 368.852 528.709 371.242C528.815 373.633 528.872 376.518 528.872 379.899C528.872 384.467 529.395 388.865 530.441 393.112C530.818 394.563 531.043 395.407 531.127 395.649L524.884 397.545L524.872 397.55ZM550.005 398.073C547.67 397.753 544.779 397.59 541.348 397.59C539.981 397.59 538.794 397.601 537.804 397.629L533.94 397.708C534.587 392.449 535.048 387.712 535.329 383.51C535.61 379.308 535.751 374.78 535.751 369.92C535.751 365.893 535.616 361.865 535.346 357.838L541.871 357.393C542.141 361.612 542.276 365.797 542.276 369.96C542.276 377.047 541.939 384.073 541.269 391.025C544.92 391.025 548.154 391.211 550.978 391.588L550.01 398.073H550.005ZM565.029 363.716H563.218C563.055 368.092 562.976 372.603 562.976 377.25C562.976 382.757 563.055 387.493 563.218 391.47H565.029V397.995H554.595V391.47H556.687C556.524 387.499 556.445 382.757 556.445 377.25C556.445 372.603 556.524 368.092 556.687 363.716H554.595V357.191H565.029V363.716ZM589.757 391.79V398.315C585.622 398.315 581.842 398.332 578.422 398.377C574.997 398.417 573.18 398.462 572.966 398.518L568.252 398.636L580.819 363.075H570.187V356.51H590.083L577.556 391.875C580.588 391.824 584.66 391.796 589.762 391.796L589.757 391.79ZM611.705 397.55C611.385 396.611 611.126 395.711 610.94 394.85C610.215 395.711 609.146 396.448 607.74 397.067C606.328 397.685 604.753 397.995 603.009 397.995C601.074 397.995 599.319 397.517 597.733 396.566C596.147 395.615 594.887 394.248 593.947 392.477C592.71 390.086 592.097 387.521 592.097 384.782C592.097 380.94 593.154 377.874 595.28 375.579C597.401 373.284 600.236 372.137 603.78 372.137C606.328 372.137 608.089 372.165 609.056 372.215C608.949 368.295 608.33 365.73 607.205 364.52C606.778 364.037 606.013 363.795 604.91 363.795C602.385 363.795 600.866 365.314 600.36 368.345C600.225 369.071 600.157 369.611 600.157 369.954L593.672 369.673C593.672 367.687 594.155 365.617 595.123 363.468C596.09 361.483 597.424 359.947 599.134 358.856C600.838 357.77 602.762 357.225 604.91 357.225C607.7 357.225 610.001 358.113 611.795 359.885C613.084 361.202 614.006 362.827 614.552 364.757C615.103 366.692 615.429 368.852 615.542 371.242C615.649 373.633 615.705 376.518 615.705 379.899C615.705 384.467 616.228 388.865 617.274 393.112C617.651 394.563 617.876 395.407 617.96 395.649L611.717 397.545L611.705 397.55ZM632.405 394.125C630.875 395.25 629.345 396.127 627.815 396.74C625.183 397.787 622.832 398.31 620.767 398.31L621.532 357.793C621.639 357.9 621.785 357.956 621.977 357.956C622.404 357.956 622.995 357.81 623.749 357.512C624.958 357.107 625.869 356.91 626.488 356.91C627.641 356.91 628.884 357.005 630.212 357.191C631.539 357.377 632.872 357.759 634.2 358.338C635.533 358.918 636.77 359.767 637.924 360.898C640.607 363.665 641.951 367.569 641.951 372.62C641.495 382.88 638.312 390.047 632.405 394.13V394.125ZM665.717 398.192C662.224 397.871 657.971 397.708 652.948 397.708C651.097 397.708 649.657 397.719 648.639 397.747H647.593L647.43 391.222L653.15 391.183C658.359 391.183 662.764 391.357 666.364 391.706L665.717 398.192ZM664.828 383.994C662.921 387.285 659.979 388.927 656.008 388.927C652.892 388.927 650.445 387.768 648.656 385.445C646.867 383.122 645.979 379.708 645.979 375.197C645.979 372.62 646.175 370.157 646.564 367.805C646.952 365.454 647.548 363.519 648.358 361.984C650.422 358.412 653.527 356.629 657.662 356.629C660.373 356.629 662.629 357.5 664.429 359.244C666.605 361.556 667.691 365.122 667.691 369.96C667.691 376.029 666.735 380.709 664.834 383.994H664.828Z" fill="#FFF59E"/>
<path d="M494.227 365.409C493.907 364.065 493.384 363.21 492.658 362.833C492.416 362.726 491.961 362.67 491.291 362.67C490.245 362.67 489.396 363.019 488.754 363.716C488.107 364.414 487.669 365.876 487.427 368.104C489.789 368.104 492.18 368.076 494.599 368.025C494.571 367.221 494.452 366.349 494.239 365.409H494.227Z" fill="#FFF59E"/>
<path d="M627.984 363.514L627.461 389.653C629.66 388.528 631.5 386.571 632.979 383.792C634.453 381.013 635.274 377.272 635.437 372.576C635.437 369.217 634.712 366.872 633.26 365.527C631.972 364.239 630.212 363.57 627.984 363.514Z" fill="#FFF59E"/>
<path d="M345.486 381.52C345.621 381.627 345.789 381.728 345.992 381.824C346.194 381.919 346.627 381.964 347.302 381.964C347.786 381.964 348.309 381.812 348.872 381.503C349.434 381.194 349.941 380.395 350.379 379.107C350.824 377.819 351.043 375.63 351.043 372.542C351.043 371.873 351.015 370.945 350.964 369.764C350.829 366.732 350.278 364.701 349.311 363.683C349.176 363.548 348.996 363.435 348.765 363.34C348.54 363.244 348.101 363.199 347.454 363.199C346.189 363.199 345.227 363.739 344.552 364.808C343.882 365.882 343.545 368.419 343.545 372.419C343.545 377.414 344.175 380.434 345.441 381.48C345.469 381.48 345.48 381.497 345.48 381.52H345.486Z" fill="#FFF59E"/>
<path d="M428.657 362.912C427.662 362.912 426.823 363.143 426.137 363.598C425.457 364.054 424.894 364.988 424.467 366.4C424.039 367.806 423.741 369.898 423.578 372.66C423.522 373.571 423.499 374.404 423.499 375.158C423.499 378.78 424.022 381.064 425.068 382.003C425.473 382.459 426.115 382.69 427.003 382.69C427.408 382.69 427.864 382.628 428.37 382.51C428.882 382.386 429.383 382.037 429.883 381.463C430.378 380.884 430.823 379.928 431.211 378.583C431.599 377.239 431.875 375.36 432.038 372.947C432.088 372.221 432.117 371.254 432.117 370.045C432.117 366.799 431.644 364.633 430.705 363.559C430.328 363.131 429.642 362.912 428.652 362.912H428.657Z" fill="#FFF59E"/>
</svg>
